<svg xmlns="http://www.w3.org/2000/svg" xmlns:xlink="http://www.w3.org/1999/xlink" width="36" height="19" viewBox="0 0 36 19">
  <defs>
    <clipPath id="clip-path">
      <rect id="Rectangle_4145" data-name="Rectangle 4145" width="25" height="13" rx="2" transform="translate(0.056 -0.469)" fill="#fff" stroke="#e0e0e0" stroke-width="1"/>
    </clipPath>
  </defs>
  <g id="Group_87975" data-name="Group 87975" transform="translate(-0.49 0.253)">
    <g id="Rectangle_4149" data-name="Rectangle 4149" transform="translate(0.49 -0.253)" fill="#fff" stroke="#e0e0e0" stroke-width="1">
      <rect width="36" height="19" rx="2" stroke="none"/>
      <rect x="0.5" y="0.5" width="35" height="18" rx="1.5" fill="none"/>
    </g>
    <g id="Mask_Group_317" data-name="Mask Group 317" transform="translate(6.433 3.217)" clip-path="url(#clip-path)">
      <g id="mastercard" transform="translate(2.269 -0.213)">
        <path id="Path_11131" data-name="Path 11131" d="M28.37,14.185a6.185,6.185,0,1,1-12.37,0h0a6.185,6.185,0,1,1,12.37,0Z" transform="translate(-7.753 -8)" fill="#ffb600"/>
        <path id="Path_11132" data-name="Path 11132" d="M22.185,8a6.2,6.2,0,0,1,6.185,6.185h0a6.185,6.185,0,1,1-12.37,0" transform="translate(-7.753 -8)" fill="#f7981d"/>
        <path id="Path_11133" data-name="Path 11133" d="M28,8a6.2,6.2,0,0,1,6.185,6.185h0A6.18,6.18,0,0,1,28,20.37" transform="translate(-13.568 -8)" fill="#ff8500"/>
        <path id="Path_11134" data-name="Path 11134" d="M6.12,8a6.185,6.185,0,0,0,.065,12.37,6.257,6.257,0,0,0,4.156-1.6h0a5.881,5.881,0,0,0,.622-.655H9.687a7.55,7.55,0,0,1-.458-.622h2.193a4.192,4.192,0,0,0,.36-.655H8.869a3.9,3.9,0,0,1-.262-.655h3.4a6.5,6.5,0,0,0,.327-1.964,8.447,8.447,0,0,0-.131-1.309h-3.8a4.785,4.785,0,0,1,.164-.655h3.4a3.9,3.9,0,0,0-.262-.655H8.836a6.49,6.49,0,0,1,.36-.655h2.193a3.112,3.112,0,0,0-.491-.655H9.687a5.578,5.578,0,0,1,.622-.622,6.039,6.039,0,0,0-4.156-1.6C6.153,8,6.153,8,6.12,8Z" transform="translate(0 -8)" fill="#ff5050"/>
        <path id="Path_11135" data-name="Path 11135" d="M0,14.247a6.18,6.18,0,0,0,6.185,6.185,6.257,6.257,0,0,0,4.156-1.6h0a5.88,5.88,0,0,0,.622-.655H9.687a7.55,7.55,0,0,1-.458-.622h2.193a4.192,4.192,0,0,0,.36-.655H8.869a3.9,3.9,0,0,1-.262-.655h3.4a6.5,6.5,0,0,0,.327-1.964,8.447,8.447,0,0,0-.131-1.309h-3.8a4.785,4.785,0,0,1,.164-.655h3.4a3.9,3.9,0,0,0-.262-.655H8.836a6.49,6.49,0,0,1,.36-.655h2.193a3.112,3.112,0,0,0-.491-.655H9.687a5.578,5.578,0,0,1,.622-.622,6.039,6.039,0,0,0-4.156-1.6H6.12" transform="translate(0 -8.062)" fill="#e52836"/>
        <path id="Path_11136" data-name="Path 11136" d="M11.938,20.432a6.257,6.257,0,0,0,4.156-1.6h0a5.88,5.88,0,0,0,.622-.655H15.44a7.549,7.549,0,0,1-.458-.622h2.193a4.192,4.192,0,0,0,.36-.655H14.622a3.9,3.9,0,0,1-.262-.655h3.4a6.5,6.5,0,0,0,.327-1.964,8.447,8.447,0,0,0-.131-1.309h-3.8a4.784,4.784,0,0,1,.164-.655h3.4a3.9,3.9,0,0,0-.262-.655h-2.88a6.49,6.49,0,0,1,.36-.655h2.193a3.112,3.112,0,0,0-.491-.655H15.44a5.578,5.578,0,0,1,.622-.622,6.039,6.039,0,0,0-4.156-1.6h-.033" transform="translate(-5.753 -8.062)" fill="#cb2026"/>
        <g id="Group_11412" data-name="Group 11412" transform="translate(0.589 4.582)">
          <path id="Path_11137" data-name="Path 11137" d="M15.362,20.34l.1-.556a1.417,1.417,0,0,1-.164.033c-.229,0-.262-.131-.229-.2l.2-1.145h.36l.1-.622h-.327l.065-.393h-.655s-.393,2.16-.393,2.422a.491.491,0,0,0,.524.556A1,1,0,0,0,15.362,20.34Z" transform="translate(-7.573 -17.166)" fill="#fff"/>
          <path id="Path_11138" data-name="Path 11138" d="M16.7,19.628a1.041,1.041,0,0,0,1.145,1.145,1.7,1.7,0,0,0,.687-.1l.131-.622a1.962,1.962,0,0,1-.687.164c-.72,0-.589-.524-.589-.524h1.342a4.243,4.243,0,0,0,.1-.589.887.887,0,0,0-.949-.949C17.189,18.089,16.7,18.809,16.7,19.628Zm1.145-.949c.36,0,.295.425.295.458h-.72C17.418,19.1,17.484,18.678,17.844,18.678Z" transform="translate(-8.681 -17.5)" fill="#fff"/>
          <path id="Path_11139" data-name="Path 11139" d="M25.292,20.063l.131-.72a1.608,1.608,0,0,1-.556.164c-.458,0-.655-.36-.655-.753,0-.785.393-1.211.851-1.211a1.093,1.093,0,0,1,.589.2l.1-.687A2.3,2.3,0,0,0,25,16.889c-.753,0-1.505.655-1.505,1.9,0,.818.393,1.374,1.178,1.374A2.937,2.937,0,0,0,25.292,20.063Z" transform="translate(-11.972 -16.889)" fill="#fff"/>
          <path id="Path_11140" data-name="Path 11140" d="M8.1,18.032a2.318,2.318,0,0,0-.785.131l-.1.556a1.934,1.934,0,0,1,.72-.131c.229,0,.425.033.425.229,0,.131-.033.164-.033.164H8.035c-.556,0-1.178.229-1.178.982,0,.589.393.72.622.72a.983.983,0,0,0,.687-.295l-.033.262h.589l.262-1.8A.776.776,0,0,0,8.1,18.032ZM8.232,19.5c0,.1-.065.622-.458.622a.255.255,0,0,1-.262-.262c0-.164.1-.393.589-.393A.516.516,0,0,0,8.232,19.5Z" transform="translate(-3.912 -17.443)" fill="#fff"/>
          <path id="Path_11141" data-name="Path 11141" d="M11.483,20.652a.839.839,0,0,0,.982-.851c0-.818-.785-.655-.785-.982,0-.164.131-.229.36-.229.1,0,.458.033.458.033l.1-.589a2.486,2.486,0,0,0-.622-.065c-.491,0-.982.2-.982.851,0,.753.818.687.818.982,0,.2-.229.229-.393.229a2.14,2.14,0,0,1-.589-.1l-.1.589C10.763,20.586,10.927,20.652,11.483,20.652Z" transform="translate(-5.789 -17.412)" fill="#fff"/>
          <path id="Path_11142" data-name="Path 11142" d="M35.77,17.016l-.131.884a.907.907,0,0,0-.622-.327c-.589,0-1.113.72-1.113,1.571,0,.524.262,1.08.818,1.08a.874.874,0,0,0,.622-.262l-.033.229h.655l.491-3.142Zm-.295,1.734c0,.36-.164.818-.524.818-.229,0-.36-.2-.36-.524,0-.524.229-.851.524-.851C35.345,18.194,35.476,18.358,35.476,18.75Z" transform="translate(-17.018 -16.95)" fill="#fff"/>
          <path id="Path_11143" data-name="Path 11143" d="M1.765,20.158,2.157,17.8l.065,2.356h.458L3.532,17.8l-.36,2.356h.687l.524-3.142H3.3l-.655,1.931-.033-1.931H1.666l-.524,3.142Z" transform="translate(-1.143 -16.95)" fill="#fff"/>
          <path id="Path_11144" data-name="Path 11144" d="M21.355,20.711c.2-1.08.229-1.964.687-1.8a2.569,2.569,0,0,1,.229-.753H22.14c-.295,0-.524.393-.524.393l.065-.36H21.06l-.425,2.553h.72Z" transform="translate(-10.588 -17.504)" fill="#fff"/>
          <path id="Path_11145" data-name="Path 11145" d="M28.736,18.032a2.318,2.318,0,0,0-.785.131l-.1.556a1.934,1.934,0,0,1,.72-.131c.229,0,.425.033.425.229,0,.131-.033.164-.033.164H28.67c-.556,0-1.178.229-1.178.982,0,.589.393.72.622.72a.983.983,0,0,0,.687-.295l-.033.262h.589l.262-1.8A.764.764,0,0,0,28.736,18.032ZM28.9,19.5c0,.1-.065.622-.458.622a.255.255,0,0,1-.262-.262c0-.164.1-.393.589-.393C28.867,19.5,28.867,19.5,28.9,19.5Z" transform="translate(-13.911 -17.443)" fill="#fff"/>
          <path id="Path_11146" data-name="Path 11146" d="M32.022,20.711c.2-1.08.229-1.964.687-1.8a2.569,2.569,0,0,1,.229-.753h-.131c-.295,0-.524.393-.524.393l.065-.36h-.622L31.3,20.744h.72Z" transform="translate(-15.757 -17.504)" fill="#fff"/>
        </g>
        <g id="Group_11413" data-name="Group 11413" transform="translate(0.589 4.582)">
          <path id="Path_11147" data-name="Path 11147" d="M14.286,19.882a.491.491,0,0,0,.524.556,1.246,1.246,0,0,0,.491-.1l.1-.556a1.417,1.417,0,0,1-.164.033c-.229,0-.262-.131-.229-.2l.2-1.145h.36l.1-.622h-.327l.065-.393" transform="translate(-7.511 -17.166)" fill="#dce5e5"/>
          <path id="Path_11148" data-name="Path 11148" d="M17.333,19.628c0,.916.295,1.145.818,1.145a1.7,1.7,0,0,0,.687-.1l.131-.622a1.962,1.962,0,0,1-.687.164c-.72,0-.589-.524-.589-.524h1.342a4.243,4.243,0,0,0,.1-.589.887.887,0,0,0-.949-.949C17.5,18.089,17.333,18.809,17.333,19.628Zm.818-.949c.36,0,.425.425.425.458h-.851C17.726,19.1,17.791,18.678,18.151,18.678Z" transform="translate(-8.988 -17.5)" fill="#dce5e5"/>
          <path id="Path_11149" data-name="Path 11149" d="M25.6,20.063l.131-.72a1.608,1.608,0,0,1-.556.164c-.458,0-.655-.36-.655-.753,0-.785.393-1.211.851-1.211a1.093,1.093,0,0,1,.589.2l.1-.687a2.3,2.3,0,0,0-.753-.164c-.753,0-1.178.655-1.178,1.9,0,.818.065,1.374.851,1.374A2.937,2.937,0,0,0,25.6,20.063Z" transform="translate(-12.28 -16.889)" fill="#dce5e5"/>
          <path id="Path_11150" data-name="Path 11150" d="M7.217,18.813a1.934,1.934,0,0,1,.72-.131c.229,0,.425.033.425.229,0,.131-.033.164-.033.164H8.035c-.556,0-1.178.229-1.178.982,0,.589.393.72.622.72a.983.983,0,0,0,.687-.295l-.033.262h.589l.262-1.8c0-.753-.655-.785-.916-.785m.491,1.407a1.071,1.071,0,0,1-.785.622.255.255,0,0,1-.262-.262c0-.164.1-.393.589-.393A2.674,2.674,0,0,0,8.559,19.566Z" transform="translate(-3.912 -17.504)" fill="#dce5e5"/>
          <path id="Path_11151" data-name="Path 11151" d="M10.794,20.586a2.77,2.77,0,0,0,.753.065.839.839,0,0,0,.982-.851c0-.818-.785-.655-.785-.982,0-.164.131-.229.36-.229.1,0,.458.033.458.033l.1-.589a2.486,2.486,0,0,0-.622-.065c-.491,0-.655.2-.655.851,0,.753.491.687.491.982,0,.2-.229.229-.393.229" transform="translate(-5.819 -17.412)" fill="#dce5e5"/>
          <path id="Path_11152" data-name="Path 11152" d="M35.945,17.93a.907.907,0,0,0-.622-.327c-.589,0-.785.72-.785,1.571,0,.524-.065,1.08.491,1.08a.874.874,0,0,0,.622-.262l-.033.229h.655l.491-3.142m-.851,1.7c0,.36-.295.818-.655.818-.229,0-.36-.2-.36-.524,0-.524.229-.851.524-.851A.5.5,0,0,1,35.912,18.781Z" transform="translate(-17.324 -16.981)" fill="#dce5e5"/>
          <path id="Path_11153" data-name="Path 11153" d="M1.765,20.158,2.157,17.8l.065,2.356h.458L3.532,17.8l-.36,2.356h.687l.524-3.142H3.565l-.916,1.931-.033-1.931h-.36L1.143,20.158Z" transform="translate(-1.143 -16.95)" fill="#dce5e5"/>
          <path id="Path_11154" data-name="Path 11154" d="M20.7,20.711h.687c.2-1.08.229-1.964.687-1.8a2.569,2.569,0,0,1,.229-.753h-.131c-.295,0-.524.393-.524.393l.065-.36" transform="translate(-10.619 -17.504)" fill="#dce5e5"/>
          <path id="Path_11155" data-name="Path 11155" d="M27.852,18.813a1.934,1.934,0,0,1,.72-.131c.229,0,.425.033.425.229,0,.131-.033.164-.033.164H28.67c-.556,0-1.178.229-1.178.982,0,.589.393.72.622.72a.983.983,0,0,0,.687-.295l-.033.262h.589l.262-1.8c0-.753-.655-.785-.916-.785m.491,1.407a1.071,1.071,0,0,1-.785.622.255.255,0,0,1-.262-.262c0-.164.1-.393.589-.393A2.879,2.879,0,0,0,29.194,19.566Z" transform="translate(-13.911 -17.504)" fill="#dce5e5"/>
          <path id="Path_11156" data-name="Path 11156" d="M31.365,20.711h.687c.2-1.08.229-1.964.687-1.8a2.569,2.569,0,0,1,.229-.753h-.131c-.295,0-.524.393-.524.393l.065-.36" transform="translate(-15.787 -17.504)" fill="#dce5e5"/>
        </g>
      </g>
    </g>
  </g>
</svg>
