<svg width="237" height="55" viewBox="0 0 237 55" fill="none" xmlns="http://www.w3.org/2000/svg">
<path d="M79.7663 27.399C79.7663 29.9057 78.9397 31.9857 77.2863 33.639C75.5263 35.399 73.2197 36.279 70.3663 36.279H64.8863V46.999H59.3263V18.519H70.3663C73.2197 18.519 75.5263 19.399 77.2863 21.159C78.9397 22.8124 79.7663 24.8924 79.7663 27.399ZM74.2063 27.399C74.2063 26.2257 73.833 25.279 73.0863 24.559C72.3397 23.839 71.3397 23.479 70.0863 23.479H64.8863V31.279H70.0863C71.3397 31.279 72.3397 30.9324 73.0863 30.239C73.833 29.519 74.2063 28.5724 74.2063 27.399ZM106.004 46.999H99.5635L94.0035 35.639H90.0035V46.999H84.4435V18.519H95.6035C98.4302 18.519 100.697 19.3724 102.404 21.079C104.03 22.7057 104.844 24.759 104.844 27.239C104.844 29.1324 104.324 30.759 103.284 32.119C102.35 33.319 101.137 34.1857 99.6435 34.719L106.004 46.999ZM99.2835 27.239C99.2835 26.119 98.9102 25.2124 98.1635 24.519C97.4169 23.8257 96.4435 23.479 95.2435 23.479H90.0035V30.999H95.2435C96.4435 30.999 97.4169 30.6524 98.1635 29.959C98.9102 29.2657 99.2835 28.359 99.2835 27.239ZM129.375 46.999H110.615V18.519H129.375V23.479H116.175V30.159H127.415V35.119H116.175V42.039H129.375V46.999ZM160.634 46.999H155.074V30.399L149.634 41.199H145.874L140.394 30.399V46.999H134.834V18.519H140.314L147.754 33.919L155.154 18.519H160.634V46.999ZM172.816 46.999H167.256V18.519H172.816V46.999ZM199.964 37.239C199.964 40.199 198.964 42.6124 196.964 44.479C194.964 46.319 192.47 47.239 189.484 47.239C186.497 47.239 184.004 46.319 182.004 44.479C180.004 42.6124 179.004 40.199 179.004 37.239V18.519H184.564V37.039C184.564 38.6657 185.004 39.9457 185.884 40.879C186.764 41.8124 187.964 42.279 189.484 42.279C191.004 42.279 192.204 41.8124 193.084 40.879C193.99 39.9457 194.444 38.6657 194.444 37.039V18.519H199.964V37.239ZM231.962 46.999H226.402V30.399L220.962 41.199H217.202L211.722 30.399V46.999H206.162V18.519H211.642L219.082 33.919L226.482 18.519H231.962V46.999Z" fill="url(#paint0_linear_369_38671)"/>
<path fill-rule="evenodd" clip-rule="evenodd" d="M23.6856 12.001C26.6913 11.976 29.1076 9.51918 29.0827 6.5135C29.0577 3.50781 26.6009 1.09147 23.5952 1.11645C20.5895 1.14142 18.1731 3.59825 18.1981 6.60394C18.2231 9.60962 20.6799 12.026 23.6856 12.001ZM26.0828 6.53842C26.094 7.88731 25.0096 8.98988 23.6607 9.00109C22.3118 9.0123 21.2092 7.9279 21.198 6.57901C21.1868 5.23012 22.2712 4.12755 23.6201 4.11634C24.969 4.10514 26.0716 5.18954 26.0828 6.53842ZM4.72348 42.468L4.23873 40.0332L1.32568 25.4022L0.151145 19.503L5.57005 22.1137L14.4716 26.4023L21.2663 18.0518L23.6827 15.0821L25.9883 18.1386L32.1122 26.2568L41.7299 21.7753L46.9129 19.3602L45.9546 24.9974L43.4595 39.6734L43.0385 42.1496L40.5269 42.1705L7.20591 42.4473L4.72348 42.468ZM31.179 30.0013L25.454 22.4118L23.5933 19.9452L21.6433 22.3417L15.3035 30.1332L7.65137 26.4465L4.26793 24.8164L5.00129 28.4997L7.18098 39.4474L40.5019 39.1706L42.3859 28.089L42.997 24.4946L39.6921 26.0345L31.179 30.0013ZM41.1224 50.8775L6.92919 51.1616L6.90426 48.1617L41.0975 47.8776L41.1224 50.8775Z" fill="url(#paint1_linear_369_38671)"/>
<defs>
<linearGradient id="paint0_linear_369_38671" x1="627.434" y1="10.5746" x2="624.997" y2="68.5494" gradientUnits="userSpaceOnUse">
<stop offset="0.02" stop-color="#DDA820"/>
<stop offset="0.03" stop-color="#E2B130"/>
<stop offset="0.09" stop-color="#F2CA5B"/>
<stop offset="0.14" stop-color="#FBDA76"/>
<stop offset="0.16" stop-color="#FFE081"/>
<stop offset="0.18" stop-color="#F8D779"/>
<stop offset="0.47" stop-color="#D1892A"/>
<stop offset="0.5" stop-color="#D29D43"/>
<stop offset="0.54" stop-color="#E4BE68"/>
<stop offset="0.57" stop-color="#F7D983"/>
<stop offset="0.58" stop-color="#FFE48D"/>
<stop offset="0.66" stop-color="#FEE07E"/>
<stop offset="0.8" stop-color="#FCD559"/>
<stop offset="0.92" stop-color="#FACC35"/>
<stop offset="0.93" stop-color="#F3C332"/>
<stop offset="0.96" stop-color="#E9B32D"/>
<stop offset="0.98" stop-color="#E2A129"/>
<stop offset="1" stop-color="#D18E31"/>
</linearGradient>
<linearGradient id="paint1_linear_369_38671" x1="67.5153" y1="4.79169" x2="87.8904" y2="59.9748" gradientUnits="userSpaceOnUse">
<stop offset="0.02" stop-color="#DDA820"/>
<stop offset="0.03" stop-color="#E2B130"/>
<stop offset="0.09" stop-color="#F2CA5B"/>
<stop offset="0.14" stop-color="#FBDA76"/>
<stop offset="0.16" stop-color="#FFE081"/>
<stop offset="0.18" stop-color="#F8D779"/>
<stop offset="0.47" stop-color="#D1892A"/>
<stop offset="0.5" stop-color="#D29D43"/>
<stop offset="0.54" stop-color="#E4BE68"/>
<stop offset="0.57" stop-color="#F7D983"/>
<stop offset="0.58" stop-color="#FFE48D"/>
<stop offset="0.66" stop-color="#FEE07E"/>
<stop offset="0.8" stop-color="#FCD559"/>
<stop offset="0.92" stop-color="#FACC35"/>
<stop offset="0.93" stop-color="#F3C332"/>
<stop offset="0.96" stop-color="#E9B32D"/>
<stop offset="0.98" stop-color="#E2A129"/>
<stop offset="1" stop-color="#D18E31"/>
</linearGradient>
</defs>
</svg>
