<svg xmlns="http://www.w3.org/2000/svg" width="32" height="16" viewBox="0 0 32 16">
  <g id="Group_87981" data-name="Group 87981" transform="translate(-0.425 -0.355)">
    <g id="Rectangle_4148" data-name="Rectangle 4148" transform="translate(0.425 0.355)" fill="#fff" stroke="#e0e0e0" stroke-width="1">
      <rect width="32" height="16" rx="2" stroke="none"/>
      <rect x="0.5" y="0.5" width="31" height="15" rx="1.5" fill="none"/>
    </g>
    <g id="layer1" transform="translate(2.899 4.796)">
      <g id="g234" transform="translate(23.994 0.57)">
        <path id="path236" d="M-2.633,0-.969,3.3l-3.5,3.305Z" transform="translate(4.467)" fill="#008c44"/>
      </g>
      <g id="g238" transform="translate(22.841 0.57)">
        <path id="path240" d="M-2.633,0-.972,3.3l-3.5,3.305Z" transform="translate(4.467)" fill="#f47920"/>
      </g>
      <g id="g242" transform="translate(0 0)">
        <path id="path244" d="M0-8.581l1.659-5.977H4.311a2.472,2.472,0,0,1,1.664.4,1.276,1.276,0,0,1,.165,1.321,2.275,2.275,0,0,1-.47.907,2.182,2.182,0,0,1-.833.571.729.729,0,0,1,.559.417,1.556,1.556,0,0,1-.027.91l-.2.835v.023c-.058.234-.041.359.054.369l-.061.221H3.366c.006-.141.017-.266.029-.372A1.77,1.77,0,0,1,3.44-9.2l.167-.6a.88.88,0,0,0,.011-.652c-.079-.128-.256-.191-.535-.191H2.33L1.755-8.581Zm2.7-3.407h.808a1.182,1.182,0,0,0,.621-.124.715.715,0,0,0,.282-.433c.058-.209.044-.355-.04-.438a.923.923,0,0,0-.6-.125H3.014Z" transform="translate(0 14.558)" fill="#1b3281"/>
      </g>
      <g id="g246" transform="translate(5.302 1.566)">
        <path id="path248" d="M-7.588,0-8.811,4.41H-10.3l.183-.646a2.9,2.9,0,0,1-.8.577,1.953,1.953,0,0,1-.847.189,1.351,1.351,0,0,1-.627-.133.857.857,0,0,1-.386-.4,1.138,1.138,0,0,1-.1-.574,6.4,6.4,0,0,1,.24-1.135L-12,0h1.626L-11,2.278a1.347,1.347,0,0,0-.069.7c.047.129.172.2.376.2a.683.683,0,0,0,.519-.226,1.57,1.57,0,0,0,.339-.672L-9.212,0Z" transform="translate(12.874)" fill="#1b3281"/>
      </g>
      <g id="g250" transform="translate(9.577 0)">
        <path id="path252" d="M0-8.581l1.657-5.977h2.28a5.43,5.43,0,0,1,1.17.095,1.449,1.449,0,0,1,.656.307,1.218,1.218,0,0,1,.377.7,2.262,2.262,0,0,1-.085.981,2.825,2.825,0,0,1-.975,1.538,2.775,2.775,0,0,1-1.728.531H2.285l-.507,1.83Zm2.689-3.289h.573A1.666,1.666,0,0,0,4.046-12a.768.768,0,0,0,.317-.475c.064-.229.048-.389-.049-.479a1.179,1.179,0,0,0-.712-.134H3.03Z" transform="translate(0 14.558)" fill="#1b3281"/>
      </g>
      <g id="g254" transform="translate(14.392 1.411)">
        <path id="path256" d="M-3.965-6.555l.017-.419a2.96,2.96,0,0,1-.795.437,2.522,2.522,0,0,1-.852.142,1.147,1.147,0,0,1-.967-.367A1.154,1.154,0,0,1-6.65-7.8a1.626,1.626,0,0,1,.64-.968,3.715,3.715,0,0,1,1.532-.454c.091-.015.212-.027.365-.045.529-.061.827-.2.891-.432a.237.237,0,0,0-.065-.276.717.717,0,0,0-.42-.088.74.74,0,0,0-.417.108.652.652,0,0,0-.251.332H-5.96a1.828,1.828,0,0,1,.875-1.122,3.413,3.413,0,0,1,1.728-.378,3.646,3.646,0,0,1,.9.1,1.37,1.37,0,0,1,.587.271.8.8,0,0,1,.274.478,1.882,1.882,0,0,1-.1.762l-.682,2.459a.49.49,0,0,0-.014.218.262.262,0,0,0,.09.154l-.037.125Zm.4-1.969a5.915,5.915,0,0,1-.676.209c-.438.117-.684.274-.737.468a.3.3,0,0,0,.039.294.4.4,0,0,0,.312.1.981.981,0,0,0,.648-.2A1.279,1.279,0,0,0-3.616-8.3c.015-.063.028-.108.036-.142Z" transform="translate(6.726 11.121)" fill="#1b3281"/>
      </g>
      <g id="g258" transform="translate(18.086 1.566)">
        <path id="path260" d="M0-8.827l.361-1.305H.826a.67.67,0,0,0,.364-.087.471.471,0,0,0,.182-.288,1.032,1.032,0,0,0,.035-.189,2.092,2.092,0,0,0,0-.241l-.248-4.038H2.8L2.779-12.3l1.436-2.676h1.53l-2.54,4.389q-.432.736-.631,1.012a2.107,2.107,0,0,1-.377.418,1.41,1.41,0,0,1-.521.281,3.3,3.3,0,0,1-.865.084c-.112,0-.24,0-.379-.009S.15-8.815,0-8.827" transform="translate(0 14.976)" fill="#1b3281"/>
      </g>
    </g>
  </g>
</svg>
