<svg xmlns="http://www.w3.org/2000/svg" width="32" height="16" viewBox="0 0 32 16">
  <g id="Group_87955" data-name="Group 87955" transform="translate(-0.606 0.253)">
    <g id="Rectangle_4148" data-name="Rectangle 4148" transform="translate(0.606 -0.253)" fill="#fff" stroke="#e0e0e0" stroke-width="1">
      <rect width="32" height="16" rx="2" stroke="none"/>
      <rect x="0.5" y="0.5" width="31" height="15" rx="1.5" fill="none"/>
    </g>
    <g id="upi" transform="translate(6.198 3.632)">
      <g id="Group_87766" data-name="Group 87766">
        <path id="Path_100700" data-name="Path 100700" d="M42743.879,130454.047h.148l-.148.766a.422.422,0,0,0,.02.258.177.177,0,0,0,.164.078.292.292,0,0,0,.2-.078.884.884,0,0,0,.105-.258l.145-.766h.148l-.133.781a.806.806,0,0,1-.176.367.409.409,0,0,1-.32.141.278.278,0,0,1-.273-.141.545.545,0,0,1-.027-.367l.152-.781Zm18.531,1.25.246-1.25h.531l-.043.172h-.379l-.055.289h.379l-.035.211h-.379l-.07.4h.379l-.035.18Zm-.016-.953a.392.392,0,0,0-.117-.109.412.412,0,0,0-.152-.047.449.449,0,0,0-.281.156.617.617,0,0,0-.16.336.465.465,0,0,0,.035.32.223.223,0,0,0,.215.148.228.228,0,0,0,.168-.047.358.358,0,0,0,.176-.117l-.051.211a.291.291,0,0,1-.145.1.436.436,0,0,1-.176.023.366.366,0,0,1-.187-.031.741.741,0,0,1-.148-.141.649.649,0,0,1-.055-.211.683.683,0,0,1,.008-.281.882.882,0,0,1,.082-.227.82.82,0,0,1,.148-.242.353.353,0,0,1,.2-.109.275.275,0,0,1,.2-.062.3.3,0,0,1,.16.031.34.34,0,0,1,.125.094Zm-1.523.469h.273l-.047-.312v-.1c-.016,0-.023.031-.043.063,0,.016-.023.039-.023.039l-.16.313Zm.352.484-.059-.336h-.383l-.16.336h-.16l.7-1.3.215,1.3Zm-1.3,0,.246-1.25h.531l-.031.172h-.375l-.062.289h.375l-.035.211h-.375l-.113.57h-.16v.008Zm-.449-.711h.023a.332.332,0,0,0,.168-.047.239.239,0,0,0,.07-.141c.012-.055,0-.133-.023-.133-.012-.031-.074-.047-.16-.047h-.012l-.066.367Zm-.055.133-.1.57h-.148l.238-1.242h.219c.07,0,.109,0,.145.031a.155.155,0,0,1,.086.016c.012.047.035.094.043.141a.409.409,0,0,1-.008.164.516.516,0,0,1-.1.219.229.229,0,0,1-.184.1l.219.57h-.176l-.211-.57Zm-.949.578.23-1.25h.539l-.035.172h-.379l-.055.289h.375l-.035.211h-.375l-.086.4h.387l-.035.18Zm-.176-1.078-.2,1.07h-.16l.2-1.07h-.262l.035-.172h.664l-.035.172Zm-1.586,1.078.238-1.3.465.766c.008,0,.023.047.035.063a.358.358,0,0,1,.043.094l.16-.875h.148l-.238,1.289-.488-.781a.344.344,0,0,0-.027-.055.15.15,0,0,1-.035-.07l-.16.859h-.141v.008Zm-.387,0,.238-1.25h.156l-.234,1.25Zm-1.152-.227.148-.109c0,.07,0,.109.035.141a.217.217,0,0,0,.109.047.158.158,0,0,0,.121-.07c.039-.008.063-.078.07-.141s-.023-.109-.105-.172c-.008-.031-.008-.031-.027-.031a.4.4,0,0,1-.176-.18.331.331,0,0,1-.016-.172.472.472,0,0,1,.125-.258.282.282,0,0,1,.227-.109c.07,0,.145.008.172.063.043.016.066.086.066.141l-.129.078a.342.342,0,0,0-.047-.078.083.083,0,0,0-.078-.031.123.123,0,0,0-.113.047c-.012.031-.039.031-.047.109a.207.207,0,0,0,.125.211h.016a.662.662,0,0,1,.168.164.531.531,0,0,1-.133.508.386.386,0,0,1-.254.109.871.871,0,0,1-.187-.047.351.351,0,0,1-.07-.219Zm-.152-.852-.211,1.07h-.152l.2-1.07h-.246l.027-.172h.656l-.02.172Zm-1.6,1.078.246-1.3.473.766a.561.561,0,0,1,.027.063c.023.016.023.047.043.094l.16-.875h.148l-.246,1.289-.473-.781c-.016-.016-.023-.055-.035-.055a.109.109,0,0,1-.023-.07l-.18.859h-.141v.008Zm-.715,0,.23-1.25h.539l-.027.172h-.379l-.062.289h.395l-.051.211h-.371l-.078.4h.387l-.043.18Zm-.25-.617a.152.152,0,0,1,.008-.062,1.111,1.111,0,0,1,.008-.117c-.016.039-.016.055-.031.086a1.046,1.046,0,0,1-.047.094l-.379.68-.125-.7c0-.023-.016-.039-.016-.07v-.086a.286.286,0,0,1-.012.086.5.5,0,0,1-.035.109l-.219.6h-.145l.48-1.3.129.766,0,.063a.324.324,0,0,0,.016.109.873.873,0,0,1,.07-.109.271.271,0,0,0,.012-.062l.422-.766-.016,1.3h-.141l.016-.617Zm-1.5.617.113-.578-.2-.672h.164l.129.43v.023a.142.142,0,0,1,.012.055c.008-.016.023-.016.035-.055.016,0,.023,0,.027-.023l.289-.43h.152l-.453.672-.121.57h-.152v.008Zm-.719-.484h.266l-.043-.312a.159.159,0,0,1-.008-.039.293.293,0,0,1-.008-.062s-.012.031-.02.063c-.008.016-.027.039-.035.039l-.152.313Zm.336.484-.051-.336h-.379l-.172.336h-.16l.7-1.3.219,1.3Zm-.98-.742h.035a.278.278,0,0,0,.188-.047c.027-.008.059-.031.07-.109.008-.055,0-.133-.02-.133a.218.218,0,0,0-.16-.047h-.035l-.078.336Zm-.043.164-.109.578h-.133l.23-1.25h.238a.228.228,0,0,1,.152.031.11.11,0,0,1,.07.016.287.287,0,0,1,.047.141.551.551,0,0,1,0,.164.48.48,0,0,1-.055.141.545.545,0,0,1-.1.141.225.225,0,0,1-.09.039h-.254Zm-1.453.4h.133a.312.312,0,0,0,.16-.039.121.121,0,0,0,.105-.047.5.5,0,0,0,.113-.156.631.631,0,0,0,.063-.219.5.5,0,0,0,.012-.2.366.366,0,0,0-.047-.164c-.02-.031-.051-.039-.09-.062-.043,0-.094-.016-.168-.016h-.121l-.16.9Zm-.187.18.23-1.25h.211a.656.656,0,0,1,.285.031.185.185,0,0,1,.125.086.3.3,0,0,1,.086.219.81.81,0,0,1-.008.273,1.863,1.863,0,0,1-.1.3.408.408,0,0,1-.168.2c-.051.039-.113.086-.168.133h-.5v.008Zm-.727,0,.242-1.25h.527l-.023.172h-.383l-.059.289h.379l-.035.211h-.379l-.074.4h.375l-.035.18Zm-.371,0,.238-1.25h.145l-.23,1.25Zm-.715,0,.238-1.25h.539l-.035.172h-.379l-.062.289h.379l-.027.211h-.387l-.105.57h-.16v.008Zm-.375,0,.238-1.25h.152l-.23,1.25Zm-1.078,0,.238-1.3.469.766c.008,0,.02.047.043.063a.434.434,0,0,1,.035.094l.164-.875h.141l-.242,1.289-.469-.781c-.008-.016-.027-.055-.043-.055a.112.112,0,0,1-.027-.07l-.16.859h-.148v.008Z" transform="translate(-42743.711 -130446.133)" fill="#66686c" fill-rule="evenodd"/>
        <path id="Path_100701" data-name="Path 100701" d="M49288.523,55721.84h-1.09l1.508-6.824h1.1Zm-9.066-.437a.543.543,0,0,1-.488.469h-5.609a.373.373,0,0,1-.348-.191.7.7,0,0,1-.047-.5l1.371-6.156h1.094l-1.227,5.508h4.363l1.223-5.508h1.094l-1.426,6.375Zm8.5-6.176a.372.372,0,0,0-.359-.2h-5.98l-.3,1.34h5.457l-.316,1.434H49281l-.906,4.07h1.082l.617-2.73h4.9a.6.6,0,0,0,.418-.187.96.96,0,0,0,.273-.488l.605-2.738a.662.662,0,0,0-.039-.5Z" transform="translate(-49272.266 -55715.016)" fill="#66686c" fill-rule="evenodd"/>
        <path id="Path_100702" data-name="Path 100702" d="M256225.8,55833l1.719,3.434-3.516,3.41.422-1.551,1.953-1.859-.937-1.875Z" transform="translate(-256206.703 -55832.984)" fill="#0e8635" fill-rule="evenodd"/>
        <path id="Path_100703" data-name="Path 100703" d="M244711.828,55833l1.7,3.434-3.516,3.41Z" transform="translate(-244693.875 -55832.984)" fill="#e97208" fill-rule="evenodd"/>
      </g>
    </g>
  </g>
</svg>
