<svg xmlns="http://www.w3.org/2000/svg" width="32" height="15.543" viewBox="0 0 32 15.543">
  <g id="Group_87980" data-name="Group 87980" transform="translate(0 -0.355)">
    <g id="Rectangle_4148" data-name="Rectangle 4148" transform="translate(0 0.355)" fill="#fff" stroke="#e0e0e0" stroke-width="1">
      <rect width="32" height="15.543" rx="2" stroke="none"/>
      <rect x="0.5" y="0.5" width="31" height="14.543" rx="1.5" fill="none"/>
    </g>
    <g id="visa" transform="translate(4.282 4.233)">
      <path id="Path_11090" data-name="Path 11090" d="M17.6,24.01l1.214-6.829h1.9L19.535,24.01Z" transform="translate(-9.258 -16.953)" fill="#3c58bf"/>
      <path id="Path_11091" data-name="Path 11091" d="M17.6,24.01l1.556-6.829h1.556L19.535,24.01Z" transform="translate(-9.258 -16.953)" fill="#293688"/>
      <path id="Path_11092" data-name="Path 11092" d="M29.424,17.027a4.812,4.812,0,0,0-1.745-.3c-1.9,0-3.263.948-3.263,2.314,0,1.024.948,1.556,1.707,1.9s.986.569.986.873c0,.455-.607.683-1.138.683a4.124,4.124,0,0,1-1.821-.379L23.885,22l-.266,1.556a6.152,6.152,0,0,0,2.163.379c2.011,0,3.339-.948,3.339-2.39,0-.8-.493-1.4-1.631-1.9-.683-.341-1.1-.531-1.1-.873,0-.3.341-.607,1.1-.607a3.48,3.48,0,0,1,1.442.266l.19.076.3-1.48Z" transform="translate(-12.508 -16.724)" fill="#3c58bf"/>
      <path id="Path_11093" data-name="Path 11093" d="M29.424,17.027a4.812,4.812,0,0,0-1.745-.3c-1.9,0-2.921.948-2.921,2.314a1.983,1.983,0,0,0,1.366,1.9c.759.341.986.569.986.873,0,.455-.607.683-1.138.683a4.124,4.124,0,0,1-1.821-.379L23.885,22l-.266,1.556a6.152,6.152,0,0,0,2.163.379c2.011,0,3.339-.948,3.339-2.39,0-.8-.493-1.4-1.631-1.9-.683-.341-1.1-.531-1.1-.873,0-.3.341-.607,1.1-.607a3.48,3.48,0,0,1,1.442.266l.19.076.3-1.48Z" transform="translate(-12.508 -16.724)" fill="#293688"/>
      <path id="Path_11094" data-name="Path 11094" d="M37.965,17.181c-.455,0-.8.038-.986.493L34.133,24.01h2.049l.379-1.138H38.99l.228,1.138h1.821l-1.593-6.829Zm-.873,4.553c.114-.341.759-2.011.759-2.011s.152-.417.266-.683l.114.645s.379,1.707.455,2.087H37.093Z" transform="translate(-18.136 -16.953)" fill="#3c58bf"/>
      <path id="Path_11095" data-name="Path 11095" d="M38.42,17.181c-.455,0-.8.038-.986.493l-3.3,6.336h2.049l.379-1.138H38.99l.228,1.138h1.821l-1.593-6.829Zm-1.328,4.553c.152-.379.759-2.011.759-2.011s.152-.417.266-.683l.114.645s.379,1.707.455,2.087H37.093Z" transform="translate(-18.136 -16.953)" fill="#293688"/>
      <path id="Path_11096" data-name="Path 11096" d="M7.722,22l-.19-.986a5.5,5.5,0,0,0-2.656-3l1.707,6.07H8.632l3.073-6.829H9.657Z" transform="translate(-2.448 -16.992)" fill="#3c58bf"/>
      <path id="Path_11097" data-name="Path 11097" d="M7.722,22l-.19-.986a5.5,5.5,0,0,0-2.656-3l1.707,6.07H8.632l3.073-6.829H10.036Z" transform="translate(-2.448 -16.992)" fill="#293688"/>
      <path id="Path_11098" data-name="Path 11098" d="M0,17.181l.341.076a6.4,6.4,0,0,1,4.742,3.718L4.4,17.75c-.114-.455-.455-.569-.873-.569Z" transform="translate(0 -16.953)" fill="#ffbc00"/>
      <path id="Path_11099" data-name="Path 11099" d="M0,17.181H0c2.428.569,4.439,2.049,5.084,3.756l-.645-2.694a.926.926,0,0,0-.911-.721Z" transform="translate(0 -16.953)" fill="#f7981d"/>
      <path id="Path_11100" data-name="Path 11100" d="M0,17.181H0c2.428.569,4.439,2.049,5.084,3.756l-.455-1.48a1.338,1.338,0,0,0-.8-1.1Z" transform="translate(0 -16.953)" fill="#ed7c00"/>
      <g id="Group_11409" data-name="Group 11409" transform="translate(2.466 0.986)">
        <path id="Path_11101" data-name="Path 11101" d="M9.657,22.5l-1.29-1.29L7.76,22.65,7.608,21.7a5.5,5.5,0,0,0-2.656-3l1.707,6.07H8.708Z" transform="translate(-4.952 -18.705)" fill="#051244"/>
        <path id="Path_11102" data-name="Path 11102" d="M19.535,29.212,17.9,27.543l-.3,1.669Z" transform="translate(-11.625 -23.142)" fill="#051244"/>
        <path id="Path_11103" data-name="Path 11103" d="M26.92,26.171h0c.152.152.228.266.19.417,0,.455-.607.683-1.138.683a4.124,4.124,0,0,1-1.821-.379l-.266-.114-.266,1.556a6.152,6.152,0,0,0,2.163.379,3.756,3.756,0,0,0,2.77-.948Z" transform="translate(-14.887 -22.453)" fill="#051244"/>
        <path id="Path_11104" data-name="Path 11104" d="M34.667,25.884H36.45l.379-1.138h2.428l.228,1.138h1.821l-.645-2.77-2.276-2.2.114.607s.379,1.707.455,2.087H37.36c.152-.379.759-2.011.759-2.011s.152-.417.266-.683" transform="translate(-20.87 -19.814)" fill="#051244"/>
      </g>
    </g>
  </g>
</svg>
